# WaveFront *.obj file (generated by Autodesk ATF)

mtllib 388f5089-6cb5-46fd-b2d3-23eb5ec1cafb.mtl

g Body1

v 0.000000 1.500000 3.308423
v 0.000000 0.700000 4.000000
v 2.000000 0.700000 4.000000
v 2.000000 1.500000 3.308423
v 0.000000 1.500000 1.696004
v 2.000000 1.500000 1.696004
v 0.000000 0.700000 1.004427
v 2.000000 0.700000 1.004427
v 0.000000 0.700000 0.000000
v 2.000000 0.700000 0.000000
v 0.000000 0.000000 0.000000
v 2.000000 0.000000 0.000000
v 0.000000 0.000000 0.520000
v 2.000000 0.000000 0.520000
v 0.000000 -0.000000 1.480000
v 0.000000 0.124233 1.463644
v 0.000000 0.240000 1.415692
v 0.000000 0.339411 1.339411
v 0.000000 0.415692 1.240000
v 0.000000 0.463644 1.124233
v 0.000000 0.480000 1.000000
v 0.000000 0.463644 0.875767
v 0.000000 0.415692 0.760000
v 0.000000 0.339411 0.660589
v 0.000000 0.240000 0.584308
v 0.000000 0.124233 0.536356
v 2.000000 0.124233 0.536356
v 2.000000 0.240000 0.584308
v 2.000000 0.339411 0.660589
v 2.000000 0.415692 0.760000
v 2.000000 0.463644 0.875767
v 2.000000 0.480000 1.000000
v 2.000000 0.463644 1.124233
v 2.000000 0.415692 1.240000
v 2.000000 0.339411 1.339411
v 2.000000 0.240000 1.415692
v 2.000000 0.124233 1.463644
v 2.000000 -0.000000 1.480000
v 0.000000 -0.000000 2.900000
v 2.000000 -0.000000 2.900000
v 0.000000 -0.000000 3.860000
v 0.000000 0.124233 3.843644
v 0.000000 0.240000 3.795692
v 0.000000 0.339411 3.719411
v 0.000000 0.415692 3.620000
v 0.000000 0.463644 3.504233
v 0.000000 0.480000 3.380000
v 0.000000 0.463644 3.255767
v 0.000000 0.415692 3.140000
v 0.000000 0.339411 3.040589
v 0.000000 0.240000 2.964308
v 0.000000 0.124233 2.916356
v 2.000000 0.124233 2.916356
v 2.000000 0.240000 2.964308
v 2.000000 0.339411 3.040589
v 2.000000 0.415692 3.140000
v 2.000000 0.463644 3.255767
v 2.000000 0.480000 3.380000
v 2.000000 0.463644 3.504233
v 2.000000 0.415692 3.620000
v 2.000000 0.339411 3.719411
v 2.000000 0.240000 3.795692
v 2.000000 0.124233 3.843644
v 2.000000 -0.000000 3.860000
v 0.000000 -0.000000 4.000000
v 2.000000 -0.000000 4.000000
vt 0.000000 0.000000 0.000000
vt 0.105749 0.000000 0.000000
vt 0.000000 0.200000 0.000000
vt 0.105749 0.200000 0.000000
vt 0.000000 0.000000 0.000000
vt 0.161242 0.000000 0.000000
vt 0.000000 0.200000 0.000000
vt 0.161242 0.200000 0.000000
vt 0.000000 0.000000 0.000000
vt 0.105749 0.000000 0.000000
vt -0.000000 0.200000 0.000000
vt 0.105749 0.200000 0.000000
vt 0.000000 0.000000 0.000000
vt 0.100443 0.000000 0.000000
vt -0.000000 0.200000 0.000000
vt 0.100443 0.200000 0.000000
vt 0.000000 0.000000 0.000000
vt 0.070000 0.000000 0.000000
vt 0.000000 0.200000 0.000000
vt 0.070000 0.200000 0.000000
vt -0.000000 0.000000 0.000000
vt 0.052000 0.000000 0.000000
vt -0.000000 0.200000 0.000000
vt 0.052000 0.200000 0.000000
vt 0.200000 0.150796 0.000000
vt 0.000000 0.150796 0.000000
vt 0.200000 0.138230 0.000000
vt -0.000000 0.138230 0.000000
vt 0.200000 0.125664 0.000000
vt 0.000000 0.125664 0.000000
vt 0.200000 0.113097 0.000000
vt 0.000000 0.113097 0.000000
vt 0.200000 0.100531 0.000000
vt -0.000000 0.100531 0.000000
vt 0.200000 0.087965 0.000000
vt 0.000000 0.087965 0.000000
vt 0.200000 0.075398 0.000000
vt 0.000000 0.075398 0.000000
vt 0.200000 0.062832 0.000000
vt 0.000000 0.062832 0.000000
vt 0.200000 0.050265 0.000000
vt -0.000000 0.050265 0.000000
vt 0.200000 0.037699 0.000000
vt 0.000000 0.037699 0.000000
vt 0.200000 0.025133 0.000000
vt 0.000000 0.025133 0.000000
vt 0.200000 0.012566 0.000000
vt 0.000000 0.012566 0.000000
vt 0.200000 0.000000 0.000000
vt 0.000000 0.000000 0.000000
vt 0.000000 0.000000 0.000000
vt 0.142000 0.000000 0.000000
vt 0.000000 0.200000 0.000000
vt 0.142000 0.200000 0.000000
vt 0.200000 0.150796 0.000000
vt 0.000000 0.150796 0.000000
vt 0.200000 0.138230 0.000000
vt 0.000000 0.138230 0.000000
vt 0.200000 0.125664 0.000000
vt 0.000000 0.125664 0.000000
vt 0.200000 0.113097 0.000000
vt 0.000000 0.113097 0.000000
vt 0.200000 0.100531 0.000000
vt 0.000000 0.100531 0.000000
vt 0.200000 0.087965 0.000000
vt 0.000000 0.087965 0.000000
vt 0.200000 0.075398 0.000000
vt 0.000000 0.075398 0.000000
vt 0.200000 0.062832 0.000000
vt 0.000000 0.062832 0.000000
vt 0.200000 0.050265 0.000000
vt -0.000000 0.050265 0.000000
vt 0.200000 0.037699 0.000000
vt 0.000000 0.037699 0.000000
vt 0.200000 0.025133 0.000000
vt 0.000000 0.025133 0.000000
vt 0.200000 0.012566 0.000000
vt 0.000000 0.012566 0.000000
vt 0.200000 -0.000000 0.000000
vt 0.000000 -0.000000 0.000000
vt -0.000000 0.000000 0.000000
vt 0.014000 0.000000 0.000000
vt -0.000000 0.200000 0.000000
vt 0.014000 0.200000 0.000000
vt -0.000000 0.000000 0.000000
vt 0.070000 0.000000 0.000000
vt -0.000000 0.200000 0.000000
vt 0.070000 0.200000 0.000000
vt -0.200000 -0.051000 0.000000
vt -0.179569 -0.027000 0.000000
vt -0.200000 0.019000 0.000000
vt -0.171941 -0.017059 0.000000
vt -0.162000 -0.009431 0.000000
vt -0.186000 -0.051000 0.000000
vt -0.184364 -0.038577 0.000000
vt -0.150423 -0.004636 0.000000
vt -0.138000 -0.003000 0.000000
vt -0.130842 0.099000 0.000000
vt -0.125577 -0.004636 0.000000
vt -0.114000 -0.009431 0.000000
vt 0.030400 0.099000 0.000000
vt -0.104059 -0.017059 0.000000
vt -0.096431 -0.027000 0.000000
vt -0.091636 -0.038577 0.000000
vt 0.053636 -0.038577 0.000000
vt 0.058431 -0.027000 0.000000
vt 0.066059 -0.017059 0.000000
vt 0.076000 -0.009431 0.000000
vt -0.090000 -0.051000 0.000000
vt 0.052000 -0.051000 0.000000
vt 0.099557 0.019000 0.000000
vt 0.087577 -0.004636 0.000000
vt 0.100000 -0.003000 0.000000
vt 0.112423 -0.004636 0.000000
vt 0.124000 -0.009431 0.000000
vt 0.200000 0.019000 0.000000
vt 0.133941 -0.017059 0.000000
vt 0.141569 -0.027000 0.000000
vt 0.200000 -0.051000 0.000000
vt 0.146364 -0.038577 0.000000
vt 0.148000 -0.051000 0.000000
vt 0.200000 0.019000 0.000000
vt 0.179569 -0.027000 0.000000
vt 0.200000 -0.051000 0.000000
vt 0.184364 -0.038577 0.000000
vt 0.186000 -0.051000 0.000000
vt 0.130842 0.099000 0.000000
vt 0.138000 -0.003000 0.000000
vt 0.150423 -0.004636 0.000000
vt 0.162000 -0.009431 0.000000
vt -0.030400 0.099000 0.000000
vt 0.114000 -0.009431 0.000000
vt 0.125577 -0.004636 0.000000
vt -0.099557 0.019000 0.000000
vt -0.076000 -0.009431 0.000000
vt -0.066059 -0.017059 0.000000
vt -0.058431 -0.027000 0.000000
vt -0.200000 0.019000 0.000000
vt -0.124000 -0.009431 0.000000
vt -0.112423 -0.004636 0.000000
vt -0.100000 -0.003000 0.000000
vt -0.200000 -0.051000 0.000000
vt -0.141569 -0.027000 0.000000
vt -0.133941 -0.017059 0.000000
vt -0.148000 -0.051000 0.000000
vt -0.146364 -0.038577 0.000000
vt -0.087577 -0.004636 0.000000
vt -0.053636 -0.038577 0.000000
vt 0.091636 -0.038577 0.000000
vt 0.096431 -0.027000 0.000000
vt 0.104059 -0.017059 0.000000
vt -0.052000 -0.051000 0.000000
vt 0.090000 -0.051000 0.000000
vt 0.171941 -0.017059 0.000000
vn 0.000000 0.065398 0.075651
vn 0.000000 0.065398 0.075651
vn 0.000000 0.065398 0.075651
vn 0.000000 0.065398 0.075651
vn 0.000000 0.100000 0.000000
vn 0.000000 0.100000 0.000000
vn 0.000000 0.100000 0.000000
vn 0.000000 0.100000 0.000000
vn 0.000000 0.065398 -0.075651
vn 0.000000 0.065398 -0.075651
vn 0.000000 0.065398 -0.075651
vn 0.000000 0.065398 -0.075651
vn 0.000000 0.100000 -0.000000
vn 0.000000 0.100000 -0.000000
vn 0.000000 0.100000 -0.000000
vn 0.000000 0.100000 -0.000000
vn 0.000000 0.000000 -0.100000
vn 0.000000 0.000000 -0.100000
vn 0.000000 0.000000 -0.100000
vn 0.000000 0.000000 -0.100000
vn 0.000000 -0.100000 0.000000
vn 0.000000 -0.100000 0.000000
vn 0.000000 -0.100000 0.000000
vn 0.000000 -0.100000 0.000000
vn 0.000000 -0.000000 -0.100000
vn 0.000000 -0.000000 -0.100000
vn 0.000000 -0.025882 -0.096593
vn 0.000000 -0.025882 -0.096593
vn 0.000000 -0.050000 -0.086603
vn 0.000000 -0.050000 -0.086603
vn 0.000000 -0.070711 -0.070711
vn 0.000000 -0.070711 -0.070711
vn 0.000000 -0.086603 -0.050000
vn 0.000000 -0.086603 -0.050000
vn 0.000000 -0.096593 -0.025882
vn 0.000000 -0.096593 -0.025882
vn 0.000000 -0.100000 0.000000
vn 0.000000 -0.100000 -0.000000
vn 0.000000 -0.096593 0.025882
vn 0.000000 -0.096593 0.025882
vn 0.000000 -0.086603 0.050000
vn 0.000000 -0.086603 0.050000
vn 0.000000 -0.070711 0.070711
vn 0.000000 -0.070711 0.070711
vn 0.000000 -0.050000 0.086603
vn 0.000000 -0.050000 0.086603
vn 0.000000 -0.025882 0.096593
vn 0.000000 -0.025882 0.096593
vn 0.000000 -0.000000 0.100000
vn 0.000000 -0.000000 0.100000
vn 0.000000 -0.100000 -0.000000
vn 0.000000 -0.100000 -0.000000
vn 0.000000 -0.100000 -0.000000
vn 0.000000 -0.100000 -0.000000
vn 0.000000 -0.000000 -0.100000
vn 0.000000 -0.000000 -0.100000
vn 0.000000 -0.025882 -0.096593
vn 0.000000 -0.025882 -0.096593
vn 0.000000 -0.050000 -0.086603
vn 0.000000 -0.050000 -0.086603
vn 0.000000 -0.070711 -0.070711
vn 0.000000 -0.070711 -0.070711
vn 0.000000 -0.086603 -0.050000
vn 0.000000 -0.086603 -0.050000
vn 0.000000 -0.096593 -0.025882
vn 0.000000 -0.096593 -0.025882
vn 0.000000 -0.100000 0.000000
vn 0.000000 -0.100000 0.000000
vn 0.000000 -0.096593 0.025882
vn 0.000000 -0.096593 0.025882
vn 0.000000 -0.086603 0.050000
vn 0.000000 -0.086603 0.050000
vn 0.000000 -0.070711 0.070711
vn 0.000000 -0.070711 0.070711
vn 0.000000 -0.050000 0.086603
vn 0.000000 -0.050000 0.086603
vn 0.000000 -0.025882 0.096593
vn 0.000000 -0.025882 0.096593
vn 0.000000 0.000000 0.100000
vn 0.000000 0.000000 0.100000
vn 0.000000 -0.100000 0.000000
vn 0.000000 -0.100000 0.000000
vn 0.000000 -0.100000 0.000000
vn 0.000000 -0.100000 0.000000
vn 0.000000 0.000000 0.100000
vn 0.000000 0.000000 0.100000
vn 0.000000 0.000000 0.100000
vn 0.000000 0.000000 0.100000
vn 0.100000 0.000000 0.000000
vn 0.100000 0.000000 0.000000
vn 0.100000 0.000000 0.000000
vn 0.100000 0.000000 0.000000
vn 0.100000 0.000000 0.000000
vn 0.100000 0.000000 0.000000
vn 0.100000 0.000000 0.000000
vn 0.100000 0.000000 0.000000
vn 0.100000 0.000000 0.000000
vn 0.100000 0.000000 0.000000
vn 0.100000 0.000000 0.000000
vn 0.100000 0.000000 0.000000
vn 0.100000 0.000000 0.000000
vn 0.100000 0.000000 0.000000
vn 0.100000 0.000000 0.000000
vn 0.100000 0.000000 0.000000
vn 0.100000 0.000000 0.000000
vn 0.100000 0.000000 0.000000
vn 0.100000 0.000000 0.000000
vn 0.100000 0.000000 0.000000
vn 0.100000 0.000000 0.000000
vn 0.100000 0.000000 0.000000
vn 0.100000 0.000000 0.000000
vn 0.100000 0.000000 0.000000
vn 0.100000 0.000000 0.000000
vn 0.100000 0.000000 0.000000
vn 0.100000 0.000000 0.000000
vn 0.100000 0.000000 0.000000
vn 0.100000 0.000000 0.000000
vn 0.100000 0.000000 0.000000
vn 0.100000 0.000000 0.000000
vn 0.100000 0.000000 0.000000
vn 0.100000 0.000000 0.000000
vn -0.100000 0.000000 0.000000
vn -0.100000 0.000000 0.000000
vn -0.100000 0.000000 0.000000
vn -0.100000 0.000000 0.000000
vn -0.100000 0.000000 0.000000
vn -0.100000 0.000000 0.000000
vn -0.100000 0.000000 0.000000
vn -0.100000 0.000000 0.000000
vn -0.100000 0.000000 0.000000
vn -0.100000 0.000000 0.000000
vn -0.100000 0.000000 0.000000
vn -0.100000 0.000000 0.000000
vn -0.100000 0.000000 0.000000
vn -0.100000 0.000000 0.000000
vn -0.100000 0.000000 0.000000
vn -0.100000 0.000000 0.000000
vn -0.100000 0.000000 0.000000
vn -0.100000 0.000000 0.000000
vn -0.100000 0.000000 0.000000
vn -0.100000 0.000000 0.000000
vn -0.100000 0.000000 0.000000
vn -0.100000 0.000000 0.000000
vn -0.100000 0.000000 0.000000
vn -0.100000 0.000000 0.000000
vn -0.100000 0.000000 0.000000
vn -0.100000 0.000000 0.000000
vn -0.100000 0.000000 0.000000
vn -0.100000 0.000000 0.000000
vn -0.100000 0.000000 0.000000
vn -0.100000 0.000000 0.000000
vn -0.100000 0.000000 0.000000
vn -0.100000 0.000000 0.000000
vn -0.100000 0.000000 0.000000
usemtl Steel_-_Satin
f 1/1/1 2/2/2 4/3/3
f 4/3/3 2/2/2 3/4/4
f 5/5/5 1/6/6 6/7/7
f 6/7/7 1/6/6 4/8/8
f 7/9/9 5/10/10 8/11/11
f 8/11/11 5/10/10 6/12/12
f 9/13/13 7/14/14 10/15/15
f 10/15/15 7/14/14 8/16/16
f 11/17/17 9/18/18 12/19/19
f 12/19/19 9/18/18 10/20/20
f 13/21/21 11/22/22 14/23/23
f 14/23/23 11/22/22 12/24/24
f 38/25/25 15/26/26 37/27/27
f 37/27/27 15/26/26 16/28/28
f 37/27/27 16/28/28 36/29/29
f 36/29/29 16/28/28 17/30/30
f 36/29/29 17/30/30 35/31/31
f 35/31/31 17/30/30 18/32/32
f 35/31/31 18/32/32 34/33/33
f 34/33/33 18/32/32 19/34/34
f 34/33/33 19/34/34 33/35/35
f 33/35/35 19/34/34 20/36/36
f 33/35/35 20/36/36 32/37/37
f 32/37/37 20/36/36 21/38/38
f 32/37/37 21/38/38 31/39/39
f 31/39/39 21/38/38 22/40/40
f 31/39/39 22/40/40 30/41/41
f 30/41/41 22/40/40 23/42/42
f 30/41/41 23/42/42 29/43/43
f 29/43/43 23/42/42 24/44/44
f 29/43/43 24/44/44 28/45/45
f 28/45/45 24/44/44 25/46/46
f 28/45/45 25/46/46 27/47/47
f 27/47/47 25/46/46 26/48/48
f 27/47/47 26/48/48 14/49/49
f 14/49/49 26/48/48 13/50/50
f 39/51/51 15/52/52 40/53/53
f 40/53/53 15/52/52 38/54/54
f 64/55/55 41/56/56 63/57/57
f 63/57/57 41/56/56 42/58/58
f 63/57/57 42/58/58 62/59/59
f 62/59/59 42/58/58 43/60/60
f 62/59/59 43/60/60 61/61/61
f 61/61/61 43/60/60 44/62/62
f 61/61/61 44/62/62 60/63/63
f 60/63/63 44/62/62 45/64/64
f 60/63/63 45/64/64 59/65/65
f 59/65/65 45/64/64 46/66/66
f 59/65/65 46/66/66 58/67/67
f 58/67/67 46/66/66 47/68/68
f 58/67/67 47/68/68 57/69/69
f 57/69/69 47/68/68 48/70/70
f 57/69/69 48/70/70 56/71/71
f 56/71/71 48/70/70 49/72/72
f 56/71/71 49/72/72 55/73/73
f 55/73/73 49/72/72 50/74/74
f 55/73/73 50/74/74 54/75/75
f 54/75/75 50/74/74 51/76/76
f 54/75/75 51/76/76 53/77/77
f 53/77/77 51/76/76 52/78/78
f 53/77/77 52/78/78 40/79/79
f 40/79/79 52/78/78 39/80/80
f 65/81/81 41/82/82 66/83/83
f 66/83/83 41/82/82 64/84/84
f 2/85/85 65/86/86 3/87/87
f 3/87/87 65/86/86 66/88/88
f 66/89/89 62/90/90 3/91/91
f 3/91/91 62/90/90 61/92/92
f 3/91/91 61/92/92 60/93/93
f 64/94/94 63/95/95 66/89/89
f 66/89/89 63/95/95 62/90/90
f 60/93/93 59/96/96 3/91/91
f 3/91/91 59/96/96 58/97/97
f 3/91/91 58/97/97 4/98/98
f 4/98/98 58/97/97 57/99/99
f 4/98/98 57/99/99 56/100/100
f 4/98/98 56/100/100 6/101/101
f 6/101/101 56/100/100 55/102/102
f 6/101/101 55/102/102 54/103/103
f 53/104/104 37/105/105 54/103/103
f 54/103/103 37/105/105 36/106/106
f 54/103/103 36/106/106 6/101/101
f 6/101/101 36/106/106 35/107/107
f 6/101/101 35/107/107 34/108/108
f 40/109/109 38/110/110 53/104/104
f 53/104/104 38/110/110 37/105/105
f 6/101/101 34/108/108 8/111/111
f 8/111/111 34/108/108 33/112/112
f 8/111/111 33/112/112 32/113/113
f 32/113/113 31/114/114 8/111/111
f 8/111/111 31/114/114 30/115/115
f 8/111/111 30/115/115 10/116/116
f 10/116/116 30/115/115 29/117/117
f 10/116/116 29/117/117 28/118/118
f 10/116/116 28/118/118 12/119/119
f 12/119/119 28/118/118 27/120/120
f 12/119/119 27/120/120 14/121/121
f 2/122/122 43/123/123 65/124/124
f 65/124/124 43/123/123 42/125/125
f 65/124/124 42/125/125 41/126/126
f 1/127/127 47/128/128 2/122/122
f 2/122/122 47/128/128 46/129/129
f 2/122/122 46/129/129 45/130/130
f 5/131/131 49/132/132 1/127/127
f 1/127/127 49/132/132 48/133/133
f 1/127/127 48/133/133 47/128/128
f 7/134/134 19/135/135 5/131/131
f 5/131/131 19/135/135 18/136/136
f 5/131/131 18/136/136 17/137/137
f 9/138/138 23/139/139 7/134/134
f 7/134/134 23/139/139 22/140/140
f 7/134/134 22/140/140 21/141/141
f 11/142/142 25/143/143 9/138/138
f 9/138/138 25/143/143 24/144/144
f 9/138/138 24/144/144 23/139/139
f 13/145/145 26/146/146 11/142/142
f 11/142/142 26/146/146 25/143/143
f 21/141/141 20/147/147 7/134/134
f 7/134/134 20/147/147 19/135/135
f 16/148/148 52/149/149 17/137/137
f 17/137/137 52/149/149 51/150/150
f 17/137/137 51/150/150 5/131/131
f 5/131/131 51/150/150 50/151/151
f 5/131/131 50/151/151 49/132/132
f 15/152/152 39/153/153 16/148/148
f 16/148/148 39/153/153 52/149/149
f 45/130/130 44/154/154 2/122/122
f 2/122/122 44/154/154 43/123/123

# 66 vertices
# 154 texture params
# 154 normals
# 128 facets

# 1 groups
