# WaveFront *.obj file (generated by Autodesk ATF)

mtllib ac2d8687-1c04-4b60-ab7c-0a9ea1543326.mtl

g Body1

v 7.000000 0.000000 -0.000000
v 0.000000 0.000000 -0.000000
v 0.000000 0.000000 7.000000
v 7.000000 0.000000 7.000000
v 7.000000 -1.000000 -0.000000
v 7.000000 -1.000000 7.000000
v 0.000000 -1.000000 -0.000000
v 0.000000 -1.000000 7.000000
vt 0.000000 0.000000 0.000000
vt 0.700000 0.000000 0.000000
vt -0.000000 0.700000 0.000000
vt 0.700000 0.700000 0.000000
vt 0.000000 0.000000 0.000000
vt 0.100000 0.000000 0.000000
vt 0.000000 0.700000 0.000000
vt 0.100000 0.700000 0.000000
vt 0.000000 -0.000000 0.000000
vt 0.700000 -0.000000 0.000000
vt 0.000000 0.700000 0.000000
vt 0.700000 0.700000 0.000000
vt 0.000000 0.000000 0.000000
vt 0.100000 0.000000 0.000000
vt 0.000000 0.700000 0.000000
vt 0.100000 0.700000 0.000000
vt -0.350000 -0.050000 0.000000
vt 0.350000 -0.050000 0.000000
vt -0.350000 0.050000 0.000000
vt 0.350000 0.050000 0.000000
vt 0.350000 0.050000 0.000000
vt -0.350000 0.050000 0.000000
vt 0.350000 -0.050000 0.000000
vt -0.350000 -0.050000 0.000000
vn 0.000000 0.100000 0.000000
vn 0.000000 0.100000 0.000000
vn 0.000000 0.100000 0.000000
vn 0.000000 0.100000 0.000000
vn 0.100000 0.000000 -0.000000
vn 0.100000 0.000000 -0.000000
vn 0.100000 0.000000 -0.000000
vn 0.100000 0.000000 -0.000000
vn 0.000000 -0.100000 0.000000
vn 0.000000 -0.100000 0.000000
vn 0.000000 -0.100000 0.000000
vn 0.000000 -0.100000 0.000000
vn -0.100000 0.000000 0.000000
vn -0.100000 0.000000 0.000000
vn -0.100000 0.000000 0.000000
vn -0.100000 0.000000 0.000000
vn 0.000000 0.000000 0.100000
vn 0.000000 0.000000 0.100000
vn 0.000000 0.000000 0.100000
vn 0.000000 0.000000 0.100000
vn -0.000000 0.000000 -0.100000
vn -0.000000 0.000000 -0.100000
vn -0.000000 0.000000 -0.100000
vn -0.000000 0.000000 -0.100000
usemtl Steel_-_Satin
f 1/1/1 2/2/2 4/3/3
f 4/3/3 2/2/2 3/4/4
f 5/5/5 1/6/6 6/7/7
f 6/7/7 1/6/6 4/8/8
f 7/9/9 5/10/10 8/11/11
f 8/11/11 5/10/10 6/12/12
f 2/13/13 7/14/14 3/15/15
f 3/15/15 7/14/14 8/16/16
f 8/17/17 6/18/18 3/19/19
f 3/19/19 6/18/18 4/20/20
f 2/21/21 1/22/22 7/23/23
f 7/23/23 1/22/22 5/24/24

g Body1:1

v 7.000000 0.000000 1.000000
v 7.000000 0.000000 0.000000
v 7.000000 0.250000 0.000000
v 7.000000 0.250000 1.000000
v 1.000000 0.000000 7.000000
v 1.037727 0.000000 6.328213
v 1.150433 0.000000 5.664874
v 1.336700 0.000000 5.018326
v 1.594187 0.000000 4.396698
v 1.919655 0.000000 3.807808
v 2.309011 0.000000 3.259061
v 2.757359 0.000000 2.757359
v 3.259061 0.000000 2.309011
v 3.807808 0.000000 1.919655
v 4.396698 0.000000 1.594187
v 5.018326 0.000000 1.336700
v 5.664874 0.000000 1.150433
v 6.328213 0.000000 1.037727
v 6.328213 0.250000 1.037727
v 5.664874 0.250000 1.150433
v 5.018326 0.250000 1.336700
v 4.396698 0.250000 1.594187
v 3.807808 0.250000 1.919655
v 3.259061 0.250000 2.309011
v 2.757359 0.250000 2.757359
v 2.309011 0.250000 3.259061
v 1.919655 0.250000 3.807808
v 1.594187 0.250000 4.396698
v 1.336700 0.250000 5.018326
v 1.150433 0.250000 5.664874
v 1.037727 0.250000 6.328213
v 1.000000 0.250000 7.000000
v 0.000000 0.000000 7.000000
v 0.000000 0.250000 7.000000
v 0.000000 0.000000 0.000000
v 0.000000 0.250000 0.000000
vt -0.000000 0.000000 0.000000
vt 0.100000 0.000000 0.000000
vt -0.000000 0.025000 0.000000
vt 0.100000 0.025000 0.000000
vt 0.025000 1.884956 0.000000
vt 0.000000 1.884956 0.000000
vt 0.025000 1.817636 0.000000
vt 0.000000 1.817636 0.000000
vt 0.025000 1.750316 0.000000
vt -0.000000 1.750316 0.000000
vt 0.025000 1.682996 0.000000
vt 0.000000 1.682996 0.000000
vt 0.025000 1.615676 0.000000
vt 0.000000 1.615676 0.000000
vt 0.025000 1.548356 0.000000
vt 0.000000 1.548356 0.000000
vt 0.025000 1.481037 0.000000
vt 0.000000 1.481037 0.000000
vt 0.025000 1.413717 0.000000
vt 0.000000 1.413717 0.000000
vt 0.025000 1.346397 0.000000
vt -0.000000 1.346397 0.000000
vt 0.025000 1.279077 0.000000
vt 0.000000 1.279077 0.000000
vt 0.025000 1.211757 0.000000
vt 0.000000 1.211757 0.000000
vt 0.025000 1.144437 0.000000
vt 0.000000 1.144437 0.000000
vt 0.025000 1.077117 0.000000
vt 0.000000 1.077117 0.000000
vt 0.025000 1.009798 0.000000
vt 0.000000 1.009798 0.000000
vt 0.025000 0.942478 0.000000
vt 0.000000 0.942478 0.000000
vt 0.000000 0.000000 0.000000
vt 0.100000 0.000000 0.000000
vt 0.000000 0.025000 0.000000
vt 0.100000 0.025000 0.000000
vt 0.000000 0.000000 0.000000
vt 0.700000 0.000000 0.000000
vt 0.000000 0.025000 0.000000
vt 0.700000 0.025000 0.000000
vt -0.000000 0.000000 0.000000
vt 0.700000 0.000000 0.000000
vt -0.000000 0.025000 0.000000
vt 0.700000 0.025000 0.000000
vt -0.350000 0.350000 0.000000
vt 0.151833 0.216330 0.000000
vt 0.350000 0.350000 0.000000
vt 0.216487 0.234957 0.000000
vt 0.282821 0.246227 0.000000
vt -0.350000 -0.350000 0.000000
vt -0.216330 -0.151833 0.000000
vt -0.190581 -0.089670 0.000000
vt -0.158035 -0.030781 0.000000
vt -0.250000 -0.350000 0.000000
vt -0.246227 -0.282821 0.000000
vt -0.234957 -0.216487 0.000000
vt -0.119099 0.024094 0.000000
vt -0.074264 0.074264 0.000000
vt -0.024094 0.119099 0.000000
vt 0.030781 0.158035 0.000000
vt 0.089670 0.190581 0.000000
vt 0.350000 0.250000 0.000000
vt -0.350000 0.350000 0.000000
vt -0.151833 0.216330 0.000000
vt 0.350000 0.350000 0.000000
vt -0.089670 0.190581 0.000000
vt -0.030781 0.158035 0.000000
vt -0.350000 0.250000 0.000000
vt -0.282821 0.246227 0.000000
vt -0.216487 0.234957 0.000000
vt 0.024094 0.119099 0.000000
vt 0.074264 0.074264 0.000000
vt 0.119099 0.024094 0.000000
vt 0.158035 -0.030781 0.000000
vt 0.190581 -0.089670 0.000000
vt 0.216330 -0.151833 0.000000
vt 0.350000 -0.350000 0.000000
vt 0.234957 -0.216487 0.000000
vt 0.246227 -0.282821 0.000000
vt 0.250000 -0.350000 0.000000
vn 0.100000 0.000000 0.000000
vn 0.100000 0.000000 0.000000
vn 0.100000 0.000000 0.000000
vn 0.100000 0.000000 0.000000
vn 0.100000 -0.000000 0.000000
vn 0.100000 -0.000000 0.000000
vn 0.099371 -0.000000 0.011196
vn 0.099371 -0.000000 0.011196
vn 0.097493 -0.000000 0.022252
vn 0.097493 -0.000000 0.022252
vn 0.094388 -0.000000 0.033028
vn 0.094388 -0.000000 0.033028
vn 0.090097 -0.000000 0.043388
vn 0.090097 -0.000000 0.043388
vn 0.084672 -0.000000 0.053203
vn 0.084672 -0.000000 0.053203
vn 0.078183 -0.000000 0.062349
vn 0.078183 -0.000000 0.062349
vn 0.070711 -0.000000 0.070711
vn 0.070711 -0.000000 0.070711
vn 0.062349 -0.000000 0.078183
vn 0.062349 -0.000000 0.078183
vn 0.053203 -0.000000 0.084672
vn 0.053203 -0.000000 0.084672
vn 0.043388 -0.000000 0.090097
vn 0.043388 -0.000000 0.090097
vn 0.033028 -0.000000 0.094388
vn 0.033028 -0.000000 0.094388
vn 0.022252 -0.000000 0.097493
vn 0.022252 -0.000000 0.097493
vn 0.011196 -0.000000 0.099371
vn 0.011196 -0.000000 0.099371
vn -0.000000 0.000000 0.100000
vn -0.000000 0.000000 0.100000
vn 0.000000 -0.000000 0.100000
vn 0.000000 -0.000000 0.100000
vn 0.000000 -0.000000 0.100000
vn 0.000000 -0.000000 0.100000
vn -0.100000 0.000000 0.000000
vn -0.100000 0.000000 0.000000
vn -0.100000 0.000000 0.000000
vn -0.100000 0.000000 0.000000
vn 0.000000 0.000000 -0.100000
vn 0.000000 0.000000 -0.100000
vn 0.000000 0.000000 -0.100000
vn 0.000000 0.000000 -0.100000
vn 0.000000 0.100000 0.000000
vn 0.000000 0.100000 0.000000
vn 0.000000 0.100000 0.000000
vn 0.000000 0.100000 0.000000
vn 0.000000 0.100000 0.000000
vn 0.000000 0.100000 0.000000
vn 0.000000 0.100000 0.000000
vn 0.000000 0.100000 0.000000
vn 0.000000 0.100000 0.000000
vn 0.000000 0.100000 0.000000
vn 0.000000 0.100000 0.000000
vn 0.000000 0.100000 0.000000
vn 0.000000 0.100000 0.000000
vn 0.000000 0.100000 0.000000
vn 0.000000 0.100000 0.000000
vn 0.000000 0.100000 0.000000
vn 0.000000 0.100000 0.000000
vn 0.000000 0.100000 0.000000
vn 0.000000 -0.100000 0.000000
vn 0.000000 -0.100000 0.000000
vn 0.000000 -0.100000 0.000000
vn 0.000000 -0.100000 0.000000
vn 0.000000 -0.100000 0.000000
vn 0.000000 -0.100000 0.000000
vn 0.000000 -0.100000 0.000000
vn 0.000000 -0.100000 0.000000
vn 0.000000 -0.100000 0.000000
vn 0.000000 -0.100000 0.000000
vn 0.000000 -0.100000 0.000000
vn 0.000000 -0.100000 0.000000
vn 0.000000 -0.100000 0.000000
vn 0.000000 -0.100000 0.000000
vn 0.000000 -0.100000 0.000000
vn 0.000000 -0.100000 0.000000
vn 0.000000 -0.100000 0.000000
vn 0.000000 -0.100000 0.000000
usemtl ABS_(White)
f 9/25/25 10/26/26 12/27/27
f 12/27/27 10/26/26 11/28/28
f 40/29/29 13/30/30 39/31/31
f 39/31/31 13/30/30 14/32/32
f 39/31/31 14/32/32 38/33/33
f 38/33/33 14/32/32 15/34/34
f 38/33/33 15/34/34 37/35/35
f 37/35/35 15/34/34 16/36/36
f 37/35/35 16/36/36 36/37/37
f 36/37/37 16/36/36 17/38/38
f 36/37/37 17/38/38 35/39/39
f 35/39/39 17/38/38 18/40/40
f 35/39/39 18/40/40 34/41/41
f 34/41/41 18/40/40 19/42/42
f 34/41/41 19/42/42 33/43/43
f 33/43/43 19/42/42 20/44/44
f 33/43/43 20/44/44 32/45/45
f 32/45/45 20/44/44 21/46/46
f 32/45/45 21/46/46 31/47/47
f 31/47/47 21/46/46 22/48/48
f 31/47/47 22/48/48 30/49/49
f 30/49/49 22/48/48 23/50/50
f 30/49/49 23/50/50 29/51/51
f 29/51/51 23/50/50 24/52/52
f 29/51/51 24/52/52 28/53/53
f 28/53/53 24/52/52 25/54/54
f 28/53/53 25/54/54 27/55/55
f 27/55/55 25/54/54 26/56/56
f 27/55/55 26/56/56 12/57/57
f 12/57/57 26/56/56 9/58/58
f 41/59/59 13/60/60 42/61/61
f 42/61/61 13/60/60 40/62/62
f 43/63/63 41/64/64 44/65/65
f 44/65/65 41/64/64 42/66/66
f 10/67/67 43/68/68 11/69/69
f 11/69/69 43/68/68 44/70/70
f 44/71/71 29/72/72 11/73/73
f 11/73/73 29/72/72 28/74/74
f 11/73/73 28/74/74 27/75/75
f 42/76/76 37/77/77 44/71/71
f 44/71/71 37/77/77 36/78/78
f 44/71/71 36/78/78 35/79/79
f 40/80/80 39/81/81 42/76/76
f 42/76/76 39/81/81 38/82/82
f 42/76/76 38/82/82 37/77/77
f 35/79/79 34/83/83 44/71/71
f 44/71/71 34/83/83 33/84/84
f 44/71/71 33/84/84 32/85/85
f 32/85/85 31/86/86 44/71/71
f 44/71/71 31/86/86 30/87/87
f 44/71/71 30/87/87 29/72/72
f 27/75/75 12/88/88 11/73/73
f 10/89/89 24/90/90 43/91/91
f 43/91/91 24/90/90 23/92/92
f 43/91/91 23/92/92 22/93/93
f 9/94/94 26/95/95 10/89/89
f 10/89/89 26/95/95 25/96/96
f 10/89/89 25/96/96 24/90/90
f 22/93/93 21/97/97 43/91/91
f 43/91/91 21/97/97 20/98/98
f 43/91/91 20/98/98 19/99/99
f 19/99/99 18/100/100 43/91/91
f 43/91/91 18/100/100 17/101/101
f 43/91/91 17/101/101 16/102/102
f 43/91/91 16/102/102 41/103/103
f 41/103/103 16/102/102 15/104/104
f 41/103/103 15/104/104 14/105/105
f 14/105/105 13/106/106 41/103/103

g Body2

v 7.000000 0.000000 7.000000
v 7.000000 0.000000 6.000000
v 7.000000 0.250000 6.000000
v 7.000000 0.250000 7.000000
v 6.000000 0.000000 7.000000
v 6.000000 0.250000 7.000000
v 6.895472 0.000000 6.005478
v 6.792088 0.000000 6.021852
v 6.690983 0.000000 6.048943
v 6.593263 0.000000 6.086455
v 6.500000 0.000000 6.133975
v 6.412215 0.000000 6.190983
v 6.330869 0.000000 6.256855
v 6.256855 0.000000 6.330869
v 6.190983 0.000000 6.412215
v 6.133975 0.000000 6.500000
v 6.086455 0.000000 6.593263
v 6.048943 0.000000 6.690983
v 6.021852 0.000000 6.792088
v 6.005478 0.000000 6.895472
v 6.005478 0.250000 6.895472
v 6.021852 0.250000 6.792088
v 6.048943 0.250000 6.690983
v 6.086455 0.250000 6.593263
v 6.133975 0.250000 6.500000
v 6.190983 0.250000 6.412215
v 6.256855 0.250000 6.330869
v 6.330869 0.250000 6.256855
v 6.412215 0.250000 6.190983
v 6.500000 0.250000 6.133975
v 6.593263 0.250000 6.086455
v 6.690983 0.250000 6.048943
v 6.792088 0.250000 6.021852
v 6.895472 0.250000 6.005478
vt -0.000000 0.000000 0.000000
vt 0.100000 0.000000 0.000000
vt -0.000000 0.025000 0.000000
vt 0.100000 0.025000 0.000000
vt 0.000000 0.000000 0.000000
vt 0.100000 0.000000 0.000000
vt 0.000000 0.025000 0.000000
vt 0.100000 0.025000 0.000000
vt -0.025000 0.157080 0.000000
vt -0.000000 0.157080 0.000000
vt -0.025000 0.167552 0.000000
vt -0.000000 0.167552 0.000000
vt -0.025000 0.178024 0.000000
vt -0.000000 0.178024 0.000000
vt -0.025000 0.188496 0.000000
vt -0.000000 0.188496 0.000000
vt -0.025000 0.198968 0.000000
vt -0.000000 0.198968 0.000000
vt -0.025000 0.209440 0.000000
vt -0.000000 0.209440 0.000000
vt -0.025000 0.219911 0.000000
vt -0.000000 0.219911 0.000000
vt -0.025000 0.230383 0.000000
vt -0.000000 0.230383 0.000000
vt -0.025000 0.240855 0.000000
vt -0.000000 0.240855 0.000000
vt -0.025000 0.251327 0.000000
vt -0.000000 0.251327 0.000000
vt -0.025000 0.261799 0.000000
vt -0.000000 0.261799 0.000000
vt -0.025000 0.272271 0.000000
vt -0.000000 0.272271 0.000000
vt -0.025000 0.282743 0.000000
vt -0.000000 0.282743 0.000000
vt -0.025000 0.293215 0.000000
vt -0.000000 0.293215 0.000000
vt -0.025000 0.303687 0.000000
vt -0.000000 0.303687 0.000000
vt -0.025000 0.314159 0.000000
vt -0.000000 0.314159 0.000000
vt 0.050000 0.050000 0.000000
vt 0.039547 0.049452 0.000000
vt 0.050000 -0.050000 0.000000
vt 0.029209 0.047815 0.000000
vt 0.019098 0.045106 0.000000
vt 0.009326 0.041355 0.000000
vt 0.000000 0.036603 0.000000
vt -0.008779 0.030902 0.000000
vt -0.016913 0.024314 0.000000
vt -0.024314 0.016913 0.000000
vt -0.030902 0.008779 0.000000
vt -0.036603 0.000000 0.000000
vt -0.041355 -0.009326 0.000000
vt -0.045106 -0.019098 0.000000
vt -0.047815 -0.029209 0.000000
vt -0.049452 -0.039547 0.000000
vt -0.050000 -0.050000 0.000000
vt 0.050000 -0.050000 0.000000
vt 0.049452 -0.039547 0.000000
vt -0.050000 -0.050000 0.000000
vt 0.047815 -0.029209 0.000000
vt 0.045106 -0.019098 0.000000
vt 0.041355 -0.009326 0.000000
vt 0.036603 0.000000 0.000000
vt 0.030902 0.008779 0.000000
vt 0.024314 0.016913 0.000000
vt 0.016913 0.024314 0.000000
vt 0.008779 0.030902 0.000000
vt -0.000000 0.036603 0.000000
vt -0.009326 0.041355 0.000000
vt -0.019098 0.045106 0.000000
vt -0.029209 0.047815 0.000000
vt -0.039547 0.049452 0.000000
vt -0.050000 0.050000 0.000000
vn 0.100000 0.000000 0.000000
vn 0.100000 0.000000 0.000000
vn 0.100000 0.000000 0.000000
vn 0.100000 0.000000 0.000000
vn 0.000000 -0.000000 0.100000
vn 0.000000 -0.000000 0.100000
vn 0.000000 -0.000000 0.100000
vn 0.000000 -0.000000 0.100000
vn 0.000000 0.000000 -0.100000
vn 0.000000 0.000000 -0.100000
vn -0.010453 0.000000 -0.099452
vn -0.010453 0.000000 -0.099452
vn -0.020791 0.000000 -0.097815
vn -0.020791 0.000000 -0.097815
vn -0.030902 0.000000 -0.095106
vn -0.030902 0.000000 -0.095106
vn -0.040674 0.000000 -0.091355
vn -0.040674 0.000000 -0.091355
vn -0.050000 0.000000 -0.086603
vn -0.050000 0.000000 -0.086603
vn -0.058779 0.000000 -0.080902
vn -0.058779 0.000000 -0.080902
vn -0.066913 0.000000 -0.074314
vn -0.066913 0.000000 -0.074314
vn -0.074314 0.000000 -0.066913
vn -0.074314 0.000000 -0.066913
vn -0.080902 0.000000 -0.058779
vn -0.080902 0.000000 -0.058779
vn -0.086603 0.000000 -0.050000
vn -0.086603 0.000000 -0.050000
vn -0.091355 0.000000 -0.040674
vn -0.091355 0.000000 -0.040674
vn -0.095106 0.000000 -0.030902
vn -0.095106 0.000000 -0.030902
vn -0.097815 0.000000 -0.020791
vn -0.097815 0.000000 -0.020791
vn -0.099452 0.000000 -0.010453
vn -0.099452 0.000000 -0.010453
vn -0.100000 0.000000 -0.000000
vn -0.100000 0.000000 -0.000000
vn 0.000000 0.100000 0.000000
vn 0.000000 0.100000 0.000000
vn 0.000000 0.100000 0.000000
vn 0.000000 0.100000 0.000000
vn 0.000000 0.100000 0.000000
vn 0.000000 0.100000 0.000000
vn 0.000000 0.100000 0.000000
vn 0.000000 0.100000 0.000000
vn 0.000000 0.100000 0.000000
vn 0.000000 0.100000 0.000000
vn 0.000000 0.100000 0.000000
vn 0.000000 0.100000 0.000000
vn 0.000000 0.100000 0.000000
vn 0.000000 0.100000 0.000000
vn 0.000000 0.100000 0.000000
vn 0.000000 0.100000 0.000000
vn 0.000000 0.100000 0.000000
vn 0.000000 -0.100000 0.000000
vn 0.000000 -0.100000 0.000000
vn 0.000000 -0.100000 0.000000
vn 0.000000 -0.100000 0.000000
vn 0.000000 -0.100000 0.000000
vn 0.000000 -0.100000 0.000000
vn 0.000000 -0.100000 0.000000
vn 0.000000 -0.100000 0.000000
vn 0.000000 -0.100000 0.000000
vn 0.000000 -0.100000 0.000000
vn 0.000000 -0.100000 0.000000
vn 0.000000 -0.100000 0.000000
vn 0.000000 -0.100000 0.000000
vn 0.000000 -0.100000 0.000000
vn 0.000000 -0.100000 0.000000
vn 0.000000 -0.100000 0.000000
vn 0.000000 -0.100000 0.000000
f 45/107/107 46/108/108 48/109/109
f 48/109/109 46/108/108 47/110/110
f 49/111/111 45/112/112 50/113/113
f 50/113/113 45/112/112 48/114/114
f 47/115/115 46/116/116 78/117/117
f 78/117/117 46/116/116 51/118/118
f 78/117/117 51/118/118 77/119/119
f 77/119/119 51/118/118 52/120/120
f 77/119/119 52/120/120 76/121/121
f 76/121/121 52/120/120 53/122/122
f 76/121/121 53/122/122 75/123/123
f 75/123/123 53/122/122 54/124/124
f 75/123/123 54/124/124 74/125/125
f 74/125/125 54/124/124 55/126/126
f 74/125/125 55/126/126 73/127/127
f 73/127/127 55/126/126 56/128/128
f 73/127/127 56/128/128 72/129/129
f 72/129/129 56/128/128 57/130/130
f 72/129/129 57/130/130 71/131/131
f 71/131/131 57/130/130 58/132/132
f 71/131/131 58/132/132 70/133/133
f 70/133/133 58/132/132 59/134/134
f 70/133/133 59/134/134 69/135/135
f 69/135/135 59/134/134 60/136/136
f 69/135/135 60/136/136 68/137/137
f 68/137/137 60/136/136 61/138/138
f 68/137/137 61/138/138 67/139/139
f 67/139/139 61/138/138 62/140/140
f 67/139/139 62/140/140 66/141/141
f 66/141/141 62/140/140 63/142/142
f 66/141/141 63/142/142 65/143/143
f 65/143/143 63/142/142 64/144/144
f 65/143/143 64/144/144 50/145/145
f 50/145/145 64/144/144 49/146/146
f 47/147/147 78/148/148 48/149/149
f 48/149/149 78/148/148 77/150/150
f 48/149/149 77/150/150 76/151/151
f 76/151/151 75/152/152 48/149/149
f 48/149/149 75/152/152 74/153/153
f 48/149/149 74/153/153 73/154/154
f 73/154/154 72/155/155 48/149/149
f 48/149/149 72/155/155 71/156/156
f 48/149/149 71/156/156 70/157/157
f 70/157/157 69/158/158 48/149/149
f 48/149/149 69/158/158 68/159/159
f 48/149/149 68/159/159 67/160/160
f 67/160/160 66/161/161 48/149/149
f 48/149/149 66/161/161 65/162/162
f 48/149/149 65/162/162 50/163/163
f 49/164/164 64/165/165 45/166/166
f 45/166/166 64/165/165 63/167/167
f 45/166/166 63/167/167 62/168/168
f 62/168/168 61/169/169 45/166/166
f 45/166/166 61/169/169 60/170/170
f 45/166/166 60/170/170 59/171/171
f 59/171/171 58/172/172 45/166/166
f 45/166/166 58/172/172 57/173/173
f 45/166/166 57/173/173 56/174/174
f 56/174/174 55/175/175 45/166/166
f 45/166/166 55/175/175 54/176/176
f 45/166/166 54/176/176 53/177/177
f 53/177/177 52/178/178 45/166/166
f 45/166/166 52/178/178 51/179/179
f 45/166/166 51/179/179 46/180/180

# 78 vertices
# 180 texture params
# 180 normals
# 144 facets

# 3 groups
